<?xml version="1.0" encoding="utf-8"?>
<!-- Generator: Adobe Illustrator 22.1.0, SVG Export Plug-In . SVG Version: 6.00 Build 0)  -->
<svg version="1.1" xmlns="http://www.w3.org/2000/svg" xmlns:xlink="http://www.w3.org/1999/xlink" x="0px" y="0px"
	 viewBox="0 0 2000 1500" style="enable-background:new 0 0 2000 1500;" xml:space="preserve">
<style type="text/css">
	.st0{fill:#2E53AF;}
	.st1{fill:#19449B;}
	.st2{fill:#FFC897;}
	.st3{fill:url(#SVGID_1_);}
	.st4{fill:url(#SVGID_2_);}
	.st5{fill:url(#SVGID_3_);}
	.st6{fill:url(#SVGID_4_);}
	.st7{fill:url(#SVGID_5_);}
	.st8{fill:#24326D;}
	.st9{fill:url(#SVGID_6_);}
	.st10{fill:url(#SVGID_7_);}
	.st11{fill:url(#SVGID_8_);}
	.st12{fill:url(#SVGID_9_);}
	.st13{fill:url(#SVGID_10_);}
	.st14{fill:url(#SVGID_11_);}
	.st15{fill:url(#SVGID_12_);}
	.st16{fill:url(#SVGID_13_);}
	.st17{fill:url(#SVGID_14_);}
	.st18{fill:#6EBAE0;}
	.st19{fill:#4B93C9;}
	.st20{fill:#A6D7F4;}
	.st21{fill:url(#SVGID_15_);}
	.st22{fill:url(#SVGID_16_);}
	.st23{fill:url(#SVGID_17_);}
	.st24{fill:url(#SVGID_18_);}
	.st25{fill:url(#SVGID_19_);}
	.st26{fill:url(#SVGID_20_);}
	.st27{fill:url(#SVGID_21_);}
	.st28{fill:url(#SVGID_22_);}
	.st29{fill:url(#SVGID_23_);}
	.st30{fill:url(#SVGID_24_);}
	.st31{fill:url(#SVGID_25_);}
	.st32{fill:url(#SVGID_26_);}
	.st33{fill:url(#SVGID_27_);}
	.st34{fill:url(#SVGID_28_);}
	.st35{fill:url(#SVGID_29_);}
	.st36{fill:url(#SVGID_30_);}
	.st37{fill:url(#SVGID_31_);}
	.st38{fill:#D2F0FF;}
	.st39{fill:url(#SVGID_32_);}
	.st40{fill:url(#SVGID_33_);}
	.st41{fill:url(#SVGID_34_);}
</style>
<g id="Background">
	<rect class="st0" width="2000" height="1500"/>
</g>
<g id="Object">
	<g>
		<g>
			<ellipse class="st1" cx="1018.4" cy="1277.2" rx="885.1" ry="70.2"/>
			<g>
				<g>
					<g>
						<g>
							<g>
								<path class="st2" d="M825.2,1253.5c-2.1-2.9-2.5-9.8-1.6-27.9l-24.8,6c-0.7,12.3-2,14.8-2.6,24.4
									C806.5,1261.6,816.2,1261.8,825.2,1253.5z"/>
							</g>
						</g>
						<g>
							<path d="M792.9,1271c-2,0-1.9,7,0.6,7c2.4,0,67,0,69.6,0s10.1-9.6,2.6-9.6C858.3,1268.4,792.9,1271,792.9,1271z"/>
						</g>
						<g>
							<linearGradient id="SVGID_1_" gradientUnits="userSpaceOnUse" x1="212.2852" y1="928.827" x2="515.2286" y2="1095.1312">
								<stop  offset="0" style="stop-color:#205151"/>
								<stop  offset="1" style="stop-color:#4256A1"/>
							</linearGradient>
							<path class="st3" d="M796.2,1253.9c4.8,3.3,21.7,3.8,28.3-2.8c9.2,0.8,38.8,10.3,42.7,14.1c3.9,3.9,4.6,8-8.1,8
								c-7.7,0-62.7-2.2-66.1-2.2C790.3,1264.3,792.6,1251.4,796.2,1253.9z"/>
						</g>
						<g>
							<path d="M831.8,1261.4c-0.1,0-0.2,0-0.2,0c-0.6-0.1-0.9-0.7-0.8-1.2c0.9-3.9,3-7.8,3.1-7.9c0.3-0.5,0.9-0.7,1.4-0.4
								c0.5,0.3,0.7,0.9,0.4,1.4c0,0-2,3.8-2.9,7.4C832.7,1261.1,832.3,1261.4,831.8,1261.4z"/>
						</g>
						<g>
							<path d="M839.4,1263.8c-0.1,0-0.2,0-0.2,0c-0.6-0.1-0.9-0.7-0.8-1.2c0.9-3.9,3-7.8,3.1-7.9c0.3-0.5,0.9-0.7,1.4-0.4
								c0.5,0.3,0.7,0.9,0.4,1.4c0,0-2,3.8-2.9,7.4C840.3,1263.5,839.9,1263.8,839.4,1263.8z"/>
						</g>
						<g>
							<path d="M847,1266.3c-0.1,0-0.2,0-0.2,0c-0.6-0.1-0.9-0.7-0.8-1.2c0.9-3.9,3-7.8,3.1-7.9c0.3-0.5,0.9-0.7,1.4-0.4
								c0.5,0.3,0.7,0.9,0.4,1.4c0,0-2,3.8-2.9,7.4C847.8,1265.9,847.4,1266.3,847,1266.3z"/>
						</g>
					</g>
					<g>
						<g>
							<g>
								<path class="st2" d="M304.5,1232.5c0.5-3.6,5.1-8.8,18.3-21.1l-22-13c-9,8.3-11.8,9.3-18.8,15.7
									C285.4,1225.3,292.3,1232.2,304.5,1232.5z"/>
							</g>
						</g>
						<g>
							<path d="M269.1,1222.6c-1.4-1.4-6.2,3.7-4.5,5.4c1.7,1.7,48.1,46.6,50,48.4s13.9,0.1,8.6-5.1
								C317.9,1266.2,269.1,1222.6,269.1,1222.6z"/>
						</g>
						<g>
							<linearGradient id="SVGID_2_" gradientUnits="userSpaceOnUse" x1="100.4257" y1="1132.5927" x2="403.3691" y2="1298.8969">
								<stop  offset="0" style="stop-color:#205151"/>
								<stop  offset="1" style="stop-color:#4256A1"/>
							</linearGradient>
							<path class="st4" d="M283.4,1212.6c1.2,5.6,12.9,17.8,22.3,17.7c6,7,20.7,34.4,20.8,39.9c0.1,5.5-2.2,8.9-11.4,0.1
								c-5.6-5.4-43.5-45.2-46-47.6C271.9,1215.9,282.5,1208.3,283.4,1212.6z"/>
						</g>
						<g>
							<path d="M303.7,1242.8c-0.1-0.1-0.1-0.1-0.2-0.2c-0.3-0.5-0.2-1.1,0.3-1.4c3.4-2.2,7.6-3.5,7.7-3.5c0.5-0.2,1.1,0.1,1.3,0.7
								c0.2,0.5-0.1,1.1-0.7,1.3c0,0-4.1,1.3-7.2,3.3C304.6,1243.1,304.1,1243.1,303.7,1242.8z"/>
						</g>
						<g>
							<path d="M307.5,1249.8c-0.1-0.1-0.1-0.1-0.2-0.2c-0.3-0.5-0.2-1.1,0.3-1.4c3.4-2.2,7.6-3.5,7.7-3.5c0.5-0.2,1.1,0.1,1.3,0.7
								c0.2,0.5-0.1,1.1-0.7,1.3c0,0-4.1,1.3-7.2,3.3C308.3,1250.2,307.8,1250.1,307.5,1249.8z"/>
						</g>
						<g>
							<path d="M311.2,1256.8c-0.1-0.1-0.1-0.1-0.2-0.2c-0.3-0.5-0.2-1.1,0.3-1.4c3.4-2.2,7.6-3.5,7.7-3.5c0.5-0.2,1.1,0.1,1.3,0.7
								c0.2,0.5-0.1,1.1-0.7,1.3c0,0-4.1,1.3-7.2,3.3C312.1,1257.2,311.6,1257.1,311.2,1256.8z"/>
						</g>
					</g>
					<linearGradient id="SVGID_3_" gradientUnits="userSpaceOnUse" x1="817.8508" y1="1211.4694" x2="581.2892" y2="641.4987">
						<stop  offset="0" style="stop-color:#ED3F21"/>
						<stop  offset="1" style="stop-color:#C60000"/>
					</linearGradient>
					<path class="st5" d="M524.5,707.3c4,119.2,158.5,180.7,178,249.4c10.4,135.8,65.7,70.6,90.7,282.9
						c15.5-1.7,36.7-11.4,36.7-11.4c16.6-122-19.1-257.4-55.9-334.1c-31.3-65.1-42.1-175.6-145-271.9
						C583.1,650,524.5,707.3,524.5,707.3z"/>
					<linearGradient id="SVGID_4_" gradientUnits="userSpaceOnUse" x1="606.7937" y1="1000.1644" x2="233.6932" y2="836.6352">
						<stop  offset="0" style="stop-color:#ED3F21"/>
						<stop  offset="1" style="stop-color:#C60000"/>
					</linearGradient>
					<path class="st6" d="M490.4,641.7C406,726.1,466.8,881,429.9,942.1c-92,100.3-6.6,96.2-144.6,259.6c10,12.9,33.4,19,33.4,19
						c100.4-71.3,174.9-189.9,205.8-269.1c26.2-67.3,99.5-150.7,99.5-291.6C572.2,645.4,490.4,641.7,490.4,641.7z"/>
				</g>
				<path d="M597.7,175.1c0,43.1-19.6,101.7,55.3,146.2c99.8,59.4,64.9,177.9-61.4,171.7s-10.7-130.9-39.3-192.7
					S547.8,175.1,597.7,175.1z"/>
				<path class="st2" d="M632.1,357.3c-60.2,7.3-110.7-28-105-55.1c2.9-13.6,8.6-29.9,10.4-52.3c2.4-28.8-15.6-64.6,3.2-83.4
					s67.3-2.2,72.5,39.6S588,240.9,585,256.9c-3.1,16-2.6,32.3-2.6,40.4C582.4,307.5,586.6,329.8,632.1,357.3z"/>
				<linearGradient id="SVGID_5_" gradientUnits="userSpaceOnUse" x1="575.7686" y1="320.5842" x2="575.7686" y2="664.2613">
					<stop  offset="0" style="stop-color:#9736AE"/>
					<stop  offset="1" style="stop-color:#4D0096"/>
				</linearGradient>
				<path class="st7" d="M632.1,357.3c-65.9-26.4-73.7-77.6-110.4-56.4c-24.5,14.1-39.6,85.7-16.1,144.1s-8.5,175.2-29.2,205.3
					c30.8,17.8,169.8,29.8,198.7,17.2C624,565,624,523,636.8,460.3C639.4,447.3,671.4,396.6,632.1,357.3z"/>
				
					<rect x="973.9" y="480.6" transform="matrix(0.8335 -0.5525 0.5525 0.8335 -189.3856 649.0671)" class="st8" width="16.5" height="316.3"/>
				<path class="st2" d="M842.9,489.2c5.2,0.8,18.3,1.7,19.7,1.7s12.1-7.7,18-7.7s24.9,8.8,29.5,13.4c7.4,7.4,4,22.8-4,25.8
					c-8,3-28.4,2.3-33.7,1.2c-5.3-1.2-16.7-4.6-26-5.6C837.1,516.8,842.9,489.2,842.9,489.2z"/>
				<linearGradient id="SVGID_6_" gradientUnits="userSpaceOnUse" x1="849.5549" y1="536.6265" x2="490.5655" y2="341.5236">
					<stop  offset="0" style="stop-color:#9736AE"/>
					<stop  offset="1" style="stop-color:#4D0096"/>
				</linearGradient>
				<path class="st9" d="M544.4,302.1c-21.7,1.4-34.7,20.1-23.9,48.5c10.8,28.4,66,145.8,149.2,153.6
					c83.2,7.7,168.5,20.1,188.6,20.1c0-27.9-2.2-35.4-2.2-35.4c-82.2-8.9-101.7-40.8-175.6-40.8C612,355.7,578.9,299.8,544.4,302.1z
					"/>
				<path d="M570.7,185.8c11.6,21.3,5.1,59.1-23.4,87.5c-20.7,20.7,23.1,146.4-20.9,207.5c-66.4,92.2-202.4-37.7-108.6-137.6
					c75.8-80.8,45.8-171,114.8-177.8c31.2-32.9,79.8,6.4,74.4,21.1C598.6,190.6,586.9,191.4,570.7,185.8z"/>
				<path class="st2" d="M880.5,517.8c13.8,0.8,20.2,8.3,18.2,11.7c-2.1,3.3-21.3-3.9-29.1-6.7s-2.3-8.6-2.3-8.6"/>
				<circle cx="896" cy="510.9" r="15.5"/>
			</g>
			<g>
				<g>
					<g>
						<polygon class="st8" points="1196.1,1219.5 1172.7,1219.5 1132.3,1040.3 1236.5,1040.3 						"/>
						<g>
							<circle cx="1184.4" cy="1219.5" r="58.5"/>
							<linearGradient id="SVGID_7_" gradientUnits="userSpaceOnUse" x1="340.5374" y1="756.2778" x2="643.4808" y2="922.5821">
								<stop  offset="0" style="stop-color:#052667"/>
								<stop  offset="1" style="stop-color:#14548F"/>
							</linearGradient>
							<circle class="st10" cx="1184.4" cy="1219.5" r="39.7"/>
							<g>
								<circle cx="1184.4" cy="1200.8" r="7"/>
								<circle cx="1184.4" cy="1238.3" r="7"/>
							</g>
							<g>
								<circle cx="1203.1" cy="1219.5" r="7"/>
								<circle cx="1165.7" cy="1219.5" r="7"/>
							</g>
						</g>
					</g>
					<g>
						<polygon class="st8" points="1618.2,1219.5 1594.7,1219.5 1554.3,1040.3 1658.6,1040.3 						"/>
						<g>
							<circle cx="1606.5" cy="1219.5" r="58.5"/>
							<linearGradient id="SVGID_8_" gradientUnits="userSpaceOnUse" x1="438.2706" y1="578.2449" x2="741.214" y2="744.5491">
								<stop  offset="0" style="stop-color:#052667"/>
								<stop  offset="1" style="stop-color:#14548F"/>
							</linearGradient>
							<circle class="st11" cx="1606.5" cy="1219.5" r="39.7"/>
							<g>
								<circle cx="1606.5" cy="1200.8" r="7"/>
								<circle cx="1606.5" cy="1238.3" r="7"/>
							</g>
							<g>
								<circle cx="1625.2" cy="1219.5" r="7"/>
								<circle cx="1587.7" cy="1219.5" r="7"/>
							</g>
						</g>
					</g>
				</g>
				<g>
					<g>
						<linearGradient id="SVGID_9_" gradientUnits="userSpaceOnUse" x1="1133.7277" y1="437.0068" x2="1189.6915" y2="664.813">
							<stop  offset="0" style="stop-color:#9FC851"/>
							<stop  offset="1" style="stop-color:#4A9905"/>
						</linearGradient>
						<path class="st12" d="M1153.6,741.4c42.4-14.3,116.3-262.1,29.3-233.2C1105.8,458.7,1116,717,1153.6,741.4z"/>
						<linearGradient id="SVGID_10_" gradientUnits="userSpaceOnUse" x1="1164.3334" y1="641.1428" x2="1225.5646" y2="842.613">
							<stop  offset="0" style="stop-color:#D4D67A"/>
							<stop  offset="1" style="stop-color:#269976"/>
						</linearGradient>
						<path class="st13" d="M1150.6,586.1c-1.1-1.4-0.9-3.5,0.6-4.6c1.4-1.1,3.5-0.9,4.6,0.6l12.5,16l6.2-49.1
							c0.2-1.8,1.9-3.1,3.7-2.9c1.8,0.2,3.1,1.9,2.9,3.7l-10.6,84.4l23.7-18.4c1.4-1.1,3.5-0.9,4.6,0.6c1.1,1.4,0.9,3.5-0.6,4.6
							l-28.9,22.5l-12.4,98.3c-0.2,1.8-1.9,3.1-3.7,2.9s-3.1-1.9-2.9-3.7l5.6-44.4l-11.3-14.6c-1.1-1.4-0.9-3.5,0.6-4.6
							c1.4-1.1,3.5-0.9,4.6,0.6l7.3,9.4l10-79.9L1150.6,586.1z"/>
					</g>
					<g>
						<linearGradient id="SVGID_11_" gradientUnits="userSpaceOnUse" x1="1017.314" y1="465.6056" x2="1073.278" y2="693.4117">
							<stop  offset="0" style="stop-color:#9FC851"/>
							<stop  offset="1" style="stop-color:#4A9905"/>
						</linearGradient>
						<path class="st14" d="M1155.2,753.4c-11.7,3.8-39.6,2.4-62.1-12.4c-23.6-13.8-41.9-41-60.4-65.6c-17.4-25.5-35-48.3-45.5-64
							c-9.9-16.2-12.6-25.2,14.5-36c3.9-16.6,25.8-24.7,46.2-17.8c21,6.3,40.4,27.6,53.8,56.6c14.5,28,23.1,63.8,34.3,88.7
							C1146,728.9,1158.6,743.9,1155.2,753.4z"/>
						<linearGradient id="SVGID_12_" gradientUnits="userSpaceOnUse" x1="1089.7128" y1="663.8217" x2="1150.944" y2="865.2918">
							<stop  offset="0" style="stop-color:#D4D67A"/>
							<stop  offset="1" style="stop-color:#269976"/>
						</linearGradient>
						<path class="st15" d="M1076.7,617.6c0.3-2-0.9-3.8-2.5-4c-1.7-0.2-3.2,1.1-3.5,3.1c-1,7.3-2,14.6-3.1,22
							c-8.5-14.5-17.7-28.4-29.1-40.3c-1.3-1.3-3.4-1.4-4.8-0.2c-1.4,1.2-1.4,3.2-0.2,4.5c19.6,20.5,32.7,46.7,46.7,72.2
							c-8.8-1.7-17.5-3.4-26.3-5.1c-1.6-0.3-3.2,1.1-3.5,3.1c-0.3,2,0.7,3.9,2.3,4.2c10.7,2.1,21.3,4.2,32.1,6.1
							c16.6,29.5,35.3,57,67.9,72.2c1.8,0.8,4.4,0.5,5.8-0.7c1.4-1.2,1-2.8-0.8-3.7c-14.7-6.9-26.6-16.3-36.8-27.2
							c0.3-6.1,0.7-12.3,1.3-18.6c0.2-1.9-1.1-3.5-2.8-3.7c-1.7-0.2-3.3,1.2-3.5,3.1c-0.4,4.1-0.8,8.2-1.1,12.2
							c-17-20.8-29.1-45.9-42.5-70C1073.9,637.1,1075.4,627.3,1076.7,617.6z"/>
					</g>
					<g>
						<linearGradient id="SVGID_13_" gradientUnits="userSpaceOnUse" x1="1088.6626" y1="509.7044" x2="1114.1444" y2="735.1797">
							<stop  offset="0" style="stop-color:#9FC851"/>
							<stop  offset="1" style="stop-color:#6FBC2B"/>
						</linearGradient>
						<path class="st16" d="M1143.2,735.1c5.9-7.9,4.8-29.1,3.6-54.7c-1.5-25.7-3-55.8-4.8-83.8c-4.2-55.2-8.7-104.5-49.8-86.8
							c-19-10.6-32.9-1.8-38.5,18.3c-5.8,20-3.5,51.4,5.5,83c8.8,31.7,24.4,63.7,41,86.3C1116.6,720.4,1134.2,734,1143.2,735.1z"/>
						<linearGradient id="SVGID_14_" gradientUnits="userSpaceOnUse" x1="1119.4445" y1="654.7855" x2="1180.6755" y2="856.2557">
							<stop  offset="0" style="stop-color:#D4D67A"/>
							<stop  offset="1" style="stop-color:#269976"/>
						</linearGradient>
						<path class="st17" d="M1077.8,593.2c-1.4-1.1-1.7-3.3-0.8-4.7c1-1.5,2.9-1.7,4.3-0.6c5.1,4.2,10.2,8.3,15.4,12.3
							c-2.8-16.2-4.9-32.5-6.1-48.9c-0.1-1.8,1.1-3.4,2.9-3.5c1.7-0.1,3.2,1.3,3.3,3c2.1,27.9,6.4,55.5,13,82.6
							c4.5-8.2,9.3-16.3,14.4-24.1c0.9-1.4,2.8-1.8,4.1-0.8c1.4,1,1.7,2.9,0.8,4.3c-6.1,9.5-11.8,19.4-17.1,29.5
							c8.2,31.4,19.5,62.1,33.7,91.6c0.8,1.6,0.3,3.5-1,4.2s-3.1-0.1-3.9-1.7c-6.5-13.4-12.5-27.1-17.8-41.1
							c-5.1-2.7-10.1-5.6-15.2-8.5c-1.5-0.9-2.2-2.9-1.6-4.5c0.6-1.6,2.4-2.2,3.9-1.3c3.2,1.9,6.5,3.7,9.7,5.6
							c-9.1-25.2-16.2-51-21.3-77.2C1091.5,604.2,1084.7,598.8,1077.8,593.2z"/>
					</g>
				</g>
				<g>
					<rect x="1157.7" y="606" class="st18" width="153" height="199.6"/>
					<rect x="1088.1" y="606" class="st19" width="69.6" height="199.6"/>
					<polygon class="st18" points="1122.9,553 1088.1,606 1157.7,606 					"/>
					<polygon class="st20" points="1275.9,553 1122.9,553 1157.7,606 1310.7,606 					"/>
					<rect x="1122.9" y="515.5" class="st18" width="153" height="37.4"/>
				</g>
				<g>
					<linearGradient id="SVGID_15_" gradientUnits="userSpaceOnUse" x1="1386.8354" y1="414.8816" x2="1459.9246" y2="690.2581">
						<stop  offset="0" style="stop-color:#FFCB47"/>
						<stop  offset="1" style="stop-color:#DA4819"/>
					</linearGradient>
					<path class="st21" d="M1615.3,837.8C1615.3,837.8,1615.3,837.8,1615.3,837.8c9.8-28-6.6-59.4-33.5-75
						c-102.8-58.6-172.5-162.1-188.2-279.4c-4.3-30.7-27.3-57.8-56.9-59.2c0,0,0,0,0,0c-29.5-1.5-55,32.1-49.4,73.5
						c20.2,150.3,109.6,283.1,241.4,358.2C1564.9,876.6,1605.6,865.7,1615.3,837.8z"/>
					<g>
						<linearGradient id="SVGID_16_" gradientUnits="userSpaceOnUse" x1="1336.5428" y1="458.8748" x2="1359.3053" y2="639.3192">
							<stop  offset="0" style="stop-color:#FFD25E"/>
							<stop  offset="1" style="stop-color:#FF8861"/>
						</linearGradient>
						<path class="st22" d="M1313.8,490c17.4-2.2,34.8-4.4,52.2-6.5c4.5-0.6,7.6-5.2,7.1-10.2l0,0c-0.5-5.1-4.5-9-9-8.6
							c-17.5,1.4-34.9,2.7-52.4,4.1c-4.5,0.3-7.8,5.5-7.2,11.5c0,0,0,0,0,0C1305.1,486.2,1309.4,490.5,1313.8,490z"/>
						<linearGradient id="SVGID_17_" gradientUnits="userSpaceOnUse" x1="1340.6915" y1="458.3515" x2="1363.454" y2="638.7958">
							<stop  offset="0" style="stop-color:#FFD25E"/>
							<stop  offset="1" style="stop-color:#FF8861"/>
						</linearGradient>
						<path class="st23" d="M1329.4,564.2c16.8-5,33.6-10,50.4-15c4.3-1.3,6.7-6.3,5.3-11.1l0,0c-1.3-4.9-5.9-7.9-10.3-6.9
							c-17,4.2-34,8.5-51,12.7c-4.4,1.1-6.8,6.6-5.2,12.4l0,0C1320.2,562,1325.1,565.5,1329.4,564.2z"/>
						<linearGradient id="SVGID_18_" gradientUnits="userSpaceOnUse" x1="1356.2037" y1="456.3947" x2="1378.9662" y2="636.839">
							<stop  offset="0" style="stop-color:#FFD25E"/>
							<stop  offset="1" style="stop-color:#FF8861"/>
						</linearGradient>
						<path class="st24" d="M1356.7,634.1c15.8-7.7,31.5-15.3,47.3-23c4.1-2,5.6-7.2,3.5-11.8l0,0c-2.1-4.5-7-6.8-11.2-5
							c-16.1,6.9-32.2,13.9-48.3,20.8c-4.2,1.8-5.7,7.6-3.2,13l0,0C1347.2,633.4,1352.6,636.1,1356.7,634.1z"/>
						<linearGradient id="SVGID_19_" gradientUnits="userSpaceOnUse" x1="1382.4408" y1="453.085" x2="1405.2032" y2="633.5292">
							<stop  offset="0" style="stop-color:#FFD25E"/>
							<stop  offset="1" style="stop-color:#FF8861"/>
						</linearGradient>
						<path class="st25" d="M1394.7,698.3c14.3-10.1,28.6-20.2,42.9-30.4c3.7-2.6,4.3-8,1.6-12.2c0,0,0,0,0,0
							c-2.8-4.1-8-5.6-11.9-3.1c-14.7,9.5-29.5,18.9-44.2,28.4c-3.8,2.4-4.4,8.4-1.1,13.3l0,0C1385.3,699.2,1391,700.9,1394.7,698.3
							z"/>
						<linearGradient id="SVGID_20_" gradientUnits="userSpaceOnUse" x1="1418.7615" y1="448.5032" x2="1441.5239" y2="628.9475">
							<stop  offset="0" style="stop-color:#FFD25E"/>
							<stop  offset="1" style="stop-color:#FF8861"/>
						</linearGradient>
						<path class="st26" d="M1442.6,755.6c12.5-12.3,25-24.6,37.4-36.9c3.2-3.2,3-8.6-0.5-12.3l0,0c-3.4-3.6-8.8-4.2-12.2-1.2
							c-13,11.7-26.1,23.4-39.1,35.2c-3.4,3-2.9,9,1.1,13.3l0,0C1433.5,758,1439.4,758.8,1442.6,755.6z"/>
						<linearGradient id="SVGID_21_" gradientUnits="userSpaceOnUse" x1="1464.5267" y1="442.7301" x2="1487.2892" y2="623.1744">
							<stop  offset="0" style="stop-color:#FFD25E"/>
							<stop  offset="1" style="stop-color:#FF8861"/>
						</linearGradient>
						<path class="st27" d="M1499.6,804.7c10.3-14.2,20.6-28.3,30.9-42.5c2.6-3.7,1.5-9-2.5-12.1l0,0c-4-3.1-9.5-2.7-12.3,0.8
							c-10.9,13.7-21.9,27.4-32.8,41c-2.8,3.5-1.4,9.4,3.3,13l0,0C1490.9,808.5,1497,808.3,1499.6,804.7z"/>
						<linearGradient id="SVGID_22_" gradientUnits="userSpaceOnUse" x1="1519.0952" y1="435.8465" x2="1541.8577" y2="616.2907">
							<stop  offset="0" style="stop-color:#FFD25E"/>
							<stop  offset="1" style="stop-color:#FF8861"/>
						</linearGradient>
						<path class="st28" d="M1564.8,844.2c7.8-15.7,15.7-31.4,23.5-47c2-4.1-0.1-9.2-4.6-11.6l0,0c-4.5-2.4-9.9-1.2-12.2,2.7
							c-8.5,15.3-17.1,30.6-25.6,45.9c-2.2,3.9,0.2,9.5,5.6,12.3l0,0C1556.7,849.4,1562.8,848.3,1564.8,844.2z"/>
					</g>
				</g>
				<g>
					<g>
						<linearGradient id="SVGID_23_" gradientUnits="userSpaceOnUse" x1="1609.0439" y1="501.6167" x2="1609.0439" y2="682.5398">
							<stop  offset="0" style="stop-color:#7BD67A"/>
							<stop  offset="1" style="stop-color:#127A5A"/>
						</linearGradient>
						<path class="st29" d="M1660.1,744.3c-44.5-4.7-171.1-230.1-79.9-221C1644.6,458,1691.4,712.2,1660.1,744.3z"/>
						<linearGradient id="SVGID_24_" gradientUnits="userSpaceOnUse" x1="1625.879" y1="538.2299" x2="1625.879" y2="752.8555">
							<stop  offset="0" style="stop-color:#D4D67A"/>
							<stop  offset="1" style="stop-color:#269976"/>
						</linearGradient>
						<path class="st30" d="M1628.9,592.2c0.8-1.6,0.1-3.6-1.6-4.4c-1.6-0.8-3.6-0.1-4.4,1.6l-8.6,18.4l-16.8-46.5
							c-0.6-1.7-2.5-2.6-4.2-2s-2.6,2.5-2,4.2l28.9,80l-27.2-12.7c-1.6-0.8-3.6-0.1-4.4,1.6c-0.8,1.6-0.1,3.6,1.6,4.4l33.1,15.5
							l33.7,93.2c0.6,1.7,2.5,2.6,4.2,2s2.6-2.5,2-4.2l-15.2-42.1l7.8-16.7c0.8-1.6,0.1-3.6-1.6-4.4c-1.6-0.8-3.6-0.1-4.4,1.6
							l-5,10.7l-27.4-75.7L1628.9,592.2z"/>
					</g>
					<g>
						<linearGradient id="SVGID_25_" gradientUnits="userSpaceOnUse" x1="1728.3419" y1="501.6167" x2="1728.3419" y2="682.5398">
							<stop  offset="0" style="stop-color:#7BD67A"/>
							<stop  offset="1" style="stop-color:#127A5A"/>
						</linearGradient>
						<path class="st31" d="M1661.2,756.4c12.2,1.2,39.1-6.4,57.8-25.8c20-18.7,31.9-49.2,44.5-77.2c11.4-28.7,23.5-54.9,30.3-72.4
							c6.1-18,6.7-27.3-22-31.9c-7.4-15.4-30.6-18.4-49-7.3c-19.1,10.8-33.3,35.8-40.1,67.1c-8,30.6-8.5,67.4-13.9,94.1
							C1664.7,730.5,1655.7,747.9,1661.2,756.4z"/>
						<linearGradient id="SVGID_26_" gradientUnits="userSpaceOnUse" x1="1702.1373" y1="538.2299" x2="1702.1373" y2="752.8555">
							<stop  offset="0" style="stop-color:#D4D67A"/>
							<stop  offset="1" style="stop-color:#269976"/>
						</linearGradient>
						<path class="st32" d="M1707.9,606.7c-0.7-1.9,0-3.9,1.6-4.5s3.4,0.4,4.1,2.3c2.5,6.9,5.2,13.8,7.9,20.8
							c5-16,11-31.6,19.5-45.7c0.9-1.6,3-2.1,4.6-1.2c1.6,0.9,2.1,2.8,1.1,4.4c-14.6,24.3-21.7,52.8-29.6,80.7
							c8.2-3.6,16.3-7.2,24.5-10.7c1.5-0.6,3.3,0.4,4.1,2.3c0.8,1.9,0.2,4-1.3,4.6c-10,4.4-19.9,8.7-30,13
							c-9.7,32.4-21.9,63.4-50.4,85.4c-1.6,1.2-4.2,1.5-5.8,0.6c-1.6-0.9-1.6-2.5,0-3.8c12.9-10,22.4-21.7,29.9-34.7
							c-1.6-5.9-3.4-11.8-5.4-17.9c-0.6-1.8,0.3-3.7,1.9-4.3c1.6-0.6,3.5,0.4,4.1,2.3c1.3,3.9,2.6,7.8,3.8,11.7
							c12-24,18.3-51.2,26.1-77.6C1714.9,625.1,1711.3,615.8,1707.9,606.7z"/>
					</g>
					<g>
						<linearGradient id="SVGID_27_" gradientUnits="userSpaceOnUse" x1="1678.8806" y1="504.3367" x2="1678.8806" y2="705.3967">
							<stop  offset="0" style="stop-color:#7BD67A"/>
							<stop  offset="1" style="stop-color:#269976"/>
						</linearGradient>
						<path class="st33" d="M1668.9,735.9c-7.5-6.4-11.1-27.3-15.5-52.5c-4.2-25.4-9.3-55.1-13.7-82.8
							c-8.1-54.7-14.5-103.9,29.4-95.6c16.2-14.5,31.7-9,41.6,9.4c10.1,18.2,14.7,49.3,12.9,82.2c-1.7,32.9-9.8,67.5-21,93.2
							C1691.5,715.7,1677.4,732.9,1668.9,735.9z"/>
						<linearGradient id="SVGID_28_" gradientUnits="userSpaceOnUse" x1="1678.5188" y1="538.2299" x2="1678.5188" y2="752.8555">
							<stop  offset="0" style="stop-color:#D4D67A"/>
							<stop  offset="1" style="stop-color:#269976"/>
						</linearGradient>
						<path class="st34" d="M1701.4,583.1c1.1-1.4,1-3.6-0.3-4.8c-1.3-1.2-3.2-1.1-4.3,0.4c-4.1,5.2-8.2,10.4-12.3,15.4
							c-0.8-16.4-2.4-32.8-4.8-49c-0.3-1.8-1.9-3-3.6-2.8c-1.7,0.3-2.8,1.9-2.6,3.7c4.1,27.6,6,55.5,5.5,83.4
							c-6.2-7-12.7-13.8-19.3-20.3c-1.2-1.2-3.1-1.1-4.2,0.1c-1.1,1.2-1,3.2,0.1,4.4c8,7.9,15.8,16.3,23.1,25
							c-1.1,32.5-5.4,64.9-12.8,96.7c-0.4,1.8,0.5,3.5,1.9,3.8c1.5,0.4,3-0.8,3.5-2.6c3.4-14.6,6.2-29.2,8.3-44
							c4.3-3.8,8.7-7.7,13-11.6c1.3-1.2,1.5-3.3,0.6-4.7c-1-1.4-2.8-1.6-4-0.4c-2.7,2.6-5.5,5.1-8.2,7.5c3.3-26.5,4.6-53.3,3.8-80
							C1690.5,596.8,1696,590.1,1701.4,583.1z"/>
					</g>
				</g>
				<g>
					<linearGradient id="SVGID_29_" gradientUnits="userSpaceOnUse" x1="1515.3196" y1="558.1238" x2="1515.3196" y2="792.1661">
						<stop  offset="0" style="stop-color:#36A5D5"/>
						<stop  offset="1" style="stop-color:#1862C7"/>
					</linearGradient>
					<circle class="st35" cx="1515.3" cy="680.1" r="120.1"/>
					<linearGradient id="SVGID_30_" gradientUnits="userSpaceOnUse" x1="1515.3196" y1="558.1238" x2="1515.3196" y2="792.1661">
						<stop  offset="0" style="stop-color:#36A5D5"/>
						<stop  offset="1" style="stop-color:#3679D5"/>
					</linearGradient>
					<circle class="st36" cx="1515.3" cy="633.2" r="73.2"/>
				</g>
				<g>
					<linearGradient id="SVGID_31_" gradientUnits="userSpaceOnUse" x1="1261.5376" y1="697.2604" x2="1413.7062" y2="697.2604">
						<stop  offset="0" style="stop-color:#ED3F21"/>
						<stop  offset="1" style="stop-color:#C60000"/>
					</linearGradient>
					<polygon class="st37" points="1413.7,766.6 1296.8,791.8 1261.5,627.9 1378.5,602.8 					"/>
					<g>
						<polygon class="st38" points="1378.5,602.8 1261.5,627.9 1275.6,596 1352.5,579.5 						"/>
						<linearGradient id="SVGID_32_" gradientUnits="userSpaceOnUse" x1="1254.3888" y1="587.7269" x2="1373.7281" y2="587.7269">
							<stop  offset="0" style="stop-color:#ED3F21"/>
							<stop  offset="1" style="stop-color:#C60000"/>
						</linearGradient>
						<polygon class="st39" points="1373.7,580.8 1256.8,605.9 1254.4,594.7 1371.3,569.5 						"/>
					</g>
					<g>
						<polygon class="st38" points="1413.7,766.6 1296.8,791.8 1322.8,815.1 1399.6,798.5 						"/>
						<linearGradient id="SVGID_33_" gradientUnits="userSpaceOnUse" x1="1301.5157" y1="806.7939" x2="1420.855" y2="806.7939">
							<stop  offset="0" style="stop-color:#ED3F21"/>
							<stop  offset="1" style="stop-color:#C60000"/>
						</linearGradient>
						<polygon class="st40" points="1418.4,788.6 1301.5,813.7 1303.9,825 1420.9,799.8 						"/>
					</g>
				</g>
				<linearGradient id="SVGID_34_" gradientUnits="userSpaceOnUse" x1="1420.3154" y1="698.3156" x2="1420.3154" y2="1143.6689">
					<stop  offset="0" style="stop-color:#6E3696"/>
					<stop  offset="1" style="stop-color:#4D0096"/>
				</linearGradient>
				<path class="st41" d="M1700.5,1108.2c-7.5,22.2-32.7,40.4-56.2,40.4h-512.8c-23.4,0-46-18.9-50-42l-62.5-353.6
					c-4.1-23.1,11.8-42,35.2-42H1791c23.4,0,36.5,18.2,29.1,40.4L1700.5,1108.2z"/>
			</g>
		</g>
	</g>
</g>
</svg>
